<?xml version="1.0" encoding="UTF-8"?>
<!DOCTYPE svg PUBLIC "-//W3C//DTD SVG 1.1//EN" "http://www.w3.org/Graphics/SVG/1.1/DTD/svg11.dtd">
<svg xmlns="http://www.w3.org/2000/svg" version="1.1" width="2084px" height="2084px" style="shape-rendering:geometricPrecision; text-rendering:geometricPrecision; image-rendering:optimizeQuality; fill-rule:evenodd; clip-rule:evenodd" xmlns:xlink="http://www.w3.org/1999/xlink">
<g><path style="opacity:0.998" fill="#fefffe" d="M 1014.5,-0.5 C 1032.5,-0.5 1050.5,-0.5 1068.5,-0.5C 1316.3,8.56358 1534.3,92.7302 1722.5,252C 1905.16,412.288 2020,612.455 2067,852.5C 2075.48,899.978 2080.98,947.644 2083.5,995.5C 2083.5,1026.5 2083.5,1057.5 2083.5,1088.5C 2066.21,1376.48 1952.54,1618.31 1742.5,1814C 1578.82,1960.81 1387.15,2048.31 1167.5,2076.5C 1167.5,1837.5 1167.5,1598.5 1167.5,1359.5C 1261.5,1359.5 1355.5,1359.5 1449.5,1359.5C 1468.83,1253.83 1488.17,1148.17 1507.5,1042.5C 1394.17,1042.5 1280.83,1042.5 1167.5,1042.5C 1167.33,996.832 1167.5,951.165 1168,905.5C 1168.7,871.955 1174.37,839.289 1185,807.5C 1202.17,762.333 1233.33,731.167 1278.5,714C 1307.03,704.245 1336.36,698.578 1366.5,697C 1419.21,695.101 1471.88,695.934 1524.5,699.5C 1524.5,603.5 1524.5,507.5 1524.5,411.5C 1425.52,390.426 1325.52,382.926 1224.5,389C 1159.56,393.053 1096.89,407.053 1036.5,431C 932.366,475.804 862.199,551.97 826,659.5C 803.192,730.685 791.525,803.685 791,878.5C 790.5,933.166 790.333,987.832 790.5,1042.5C 718.833,1042.5 647.167,1042.5 575.5,1042.5C 575.5,1148.17 575.5,1253.83 575.5,1359.5C 647.167,1359.5 718.833,1359.5 790.5,1359.5C 790.833,1590.83 790.5,1822.17 789.5,2053.5C 543.691,1989.11 345.858,1855.11 196,1651.5C 71.9976,1477.33 6.49762,1283 -0.5,1068.5C -0.5,1050.5 -0.5,1032.5 -0.5,1014.5C 11.3901,728.626 119.057,486.126 322.5,287C 516.795,105.745 747.461,9.912 1014.5,-0.5 Z"/></g>
</svg>
